<?xml version="1.0" encoding="iso-8859-1"?>
<!-- Generator: Adobe Illustrator 19.0.0, SVG Export Plug-In . SVG Version: 6.00 Build 0)  -->
<svg version="1.1" id="Capa_1" xmlns="http://www.w3.org/2000/svg" xmlns:xlink="http://www.w3.org/1999/xlink" x="0px" y="0px"
	 viewBox="0 0 512 512" style="enable-background:new 0 0 512 512;" xml:space="preserve">
<path style="fill:#E7EEEF;" d="M252.67,492.808c88.946,0,153.393-28.516,161.051-127.355
	c12.442-160.57-72.105-161.051-161.051-161.051S79.177,204.883,91.619,365.453C99.277,464.292,163.724,492.808,252.67,492.808z"/>
<path style="fill:#7DD49B;" d="M357.905,303.801c0-46.649-47.468-84.466-106.022-84.466s-106.022,37.817-106.022,84.466
	s32.728,84.466,106.022,84.466C325.177,388.266,357.905,350.45,357.905,303.801z"/>
<path style="opacity:0.08;enable-background:new    ;" d="M119.416,359.728c31.639-3.639,55.793,33.707,60.922,76.719
	c1.36,11.401,0.616,20.674-1.686,28.205c5.48,5.422,9.505,12.382,11.337,20.315l0,0c0.157,0.679,0.271,1.355,0.363,2.029
	c-54.108-11.966-91.299-44.166-99.409-112.348C98.416,366.397,108.123,361.026,119.416,359.728z"/>
<path style="fill:#E7EEEF;" d="M63.146,427.963c2.727,40.67,16.153,66.497,52.285,66.497c29.488,0,59.756-11.141,54.095-58.616
	c-5.17-43.356-29.517-80.999-61.408-77.331C79.321,361.825,60.69,391.33,63.146,427.963z"/>
<path style="opacity:0.05;enable-background:new    ;" d="M115.323,447.271h23.212c11.633,0,22.418,4.394,30.597,11.757
	c-5.357,28.099-29.783,35.431-53.7,35.431c-19.937,0-32.95-7.877-41.078-21.758C81.93,457.399,97.652,447.271,115.323,447.271z"/>
<path id="SVGCleanerId_0" style="fill:#E7EEEF;" d="M97.303,512h60.281c14.306,0,24.891-13.31,21.671-27.249l0,0
	c-4.421-19.137-21.464-32.691-41.104-32.691h-21.415c-19.641,0-36.683,13.554-41.104,32.691l0,0
	C72.411,498.69,82.997,512,97.303,512z"/>
<g>
	<path id="SVGCleanerId_0_1_" style="fill:#E7EEEF;" d="M97.303,512h60.281c14.306,0,24.891-13.31,21.671-27.249l0,0
		c-4.421-19.137-21.464-32.691-41.104-32.691h-21.415c-19.641,0-36.683,13.554-41.104,32.691l0,0
		C72.411,498.69,82.997,512,97.303,512z"/>
</g>
<path style="opacity:0.08;enable-background:new    ;" d="M384.349,359.728c-31.639-3.639-55.793,33.707-60.922,76.719
	c-1.36,11.401-0.615,20.674,1.686,28.205c-5.48,5.422-9.505,12.382-11.337,20.315l0,0c-0.157,0.679-0.271,1.355-0.363,2.029
	c54.108-11.966,91.299-44.166,99.409-112.348C405.349,366.397,395.642,361.026,384.349,359.728z"/>
<path style="fill:#E7EEEF;" d="M440.619,427.963c-2.727,40.67-16.153,66.497-52.285,66.497c-29.488,0-59.756-11.141-54.095-58.616
	c5.17-43.356,29.517-80.999,61.408-77.331C424.444,361.825,443.076,391.33,440.619,427.963z"/>
<path style="opacity:0.05;enable-background:new    ;" d="M388.442,447.271H365.23c-11.633,0-22.418,4.394-30.597,11.757
	c5.358,28.099,29.783,35.431,53.7,35.431c19.937,0,32.95-7.877,41.078-21.758C421.835,457.399,406.113,447.271,388.442,447.271z"/>
<path style="fill:#E978A0;" d="M404.488,217.163c0-67.145-68.324-121.577-152.605-121.577s-150.68,54.432-150.68,121.577
	s45.183,121.577,150.68,121.577S404.488,284.308,404.488,217.163z"/>
<path style="fill:#E7EEEF;" d="M225.996,50.933L98.918,139.915c0,0-42.727-100.795,2.125-132.2S225.996,50.933,225.996,50.933z"/>
<path style="fill:#F0BDD5;" d="M122.78,38.76c-19.384,13.573-9.987,53.837,0.677,83.972l77.999-54.616
	C176.786,47.788,142.164,25.187,122.78,38.76z"/>
<path style="fill:#E7EEEF;" d="M277.769,50.933l127.079,88.981c0,0,42.727-100.795-2.125-132.2
	C357.872-23.69,277.769,50.933,277.769,50.933z"/>
<path style="fill:#F0BDD5;" d="M380.985,38.76c19.384,13.573,9.987,53.837-0.677,83.972l-78-54.616
	C326.979,47.788,361.601,25.187,380.985,38.76z"/>
<path style="fill:#E7EEEF;" d="M413.722,172.315c0-71.208-72.458-128.934-161.839-128.934S90.044,101.107,90.044,172.315
	s49.959,128.934,161.839,128.934S413.722,243.523,413.722,172.315z"/>
<path style="opacity:0.08;enable-background:new    ;" d="M294.987,270.72c-103.092,0-149.126-53.191-149.126-118.806
	c0-47.518,35.021-88.513,85.617-107.515c-79.749,7.993-141.434,62.215-141.434,127.916c0,71.208,49.959,128.934,161.839,128.934
	c65.674,0,110.001-19.896,135.422-50.728C364.131,263.274,333.552,270.72,294.987,270.72z"/>
<path style="opacity:0.05;enable-background:new    ;" d="M398.857,255.209c3.324-10.533,5.152-21.701,5.543-33.285
	c6.271-15.271,9.322-32.028,9.322-49.609c0-14.4-2.966-28.249-8.433-41.18c-24.244,2.016-47.384,11.611-47.384,44.016
	c0,14.059,9.201,25.456,20.55,25.456c0.087,0,0.173-0.009,0.26-0.011v91.113c0,18.726,15.18,33.906,33.906,33.906h2.159
	C413.769,295.113,408.086,272.292,398.857,255.209z"/>
<g>
	<path style="fill:#485358;" d="M176.863,180.513c-4.142,0-7.5-3.358-7.5-7.5v-12.795c0-4.142,3.358-7.5,7.5-7.5s7.5,3.358,7.5,7.5
		v12.795C184.363,177.155,181.005,180.513,176.863,180.513z"/>
	<path style="fill:#485358;" d="M326.902,180.513c-4.142,0-7.5-3.358-7.5-7.5v-12.795c0-4.142,3.358-7.5,7.5-7.5s7.5,3.358,7.5,7.5
		v12.795C334.402,177.155,331.044,180.513,326.902,180.513z"/>
	<path style="fill:#485358;" d="M274.268,182.804c0,12.189-10.098,22.021-22.385,21.584c-11.704-0.416-20.81-10.391-20.81-22.101
		v-15.191c0-3.252,2.637-5.889,5.889-5.889h31.417c3.252,0,5.889,2.636,5.889,5.889V182.804z"/>
</g>
<path style="fill:#E7EEEF;" d="M391.213,151.914v152.629h0.019c0.397,20.676,17.27,37.318,38.041,37.318
	s37.644-16.642,38.041-37.318h0.019V151.914H391.213z"/>
<path style="opacity:0.1;enable-background:new    ;" d="M391.213,156.233v53.132c7.33-0.113,13.724-4.981,17.284-12.231
	c0.67-1.365,2.562-1.365,3.232,0c3.603,7.336,10.104,12.242,17.544,12.242c7.439,0,13.941-4.906,17.544-12.242
	c0.67-1.365,2.562-1.365,3.232,0c3.56,7.25,9.954,12.118,17.284,12.231v-53.132H391.213z"/>
<path style="fill:#E7EEEF;" d="M429.273,122.732c-27.842,0-58.869,6.946-58.869,44.47c0,14.059,9.2,25.456,20.55,25.456
	c7.439,0,13.941-4.906,17.544-12.242c0.67-1.365,2.562-1.365,3.232,0c3.603,7.336,10.104,12.242,17.544,12.242
	s13.941-4.906,17.544-12.242c0.67-1.365,2.562-1.365,3.232,0c3.603,7.336,10.104,12.242,17.544,12.242
	c11.349,0,20.55-11.397,20.55-25.456C488.142,129.678,457.115,122.732,429.273,122.732z"/>
<path style="fill:#F3CE72;" d="M288.702,483.539L288.702,483.539c-37.947,37.947-99.472,37.947-137.419,0l-63-62.999
	c-37.947-37.947-37.947-99.472,0-137.419l0,0c37.947-37.947,99.472-37.947,137.419,0l62.999,62.999
	C326.65,384.067,326.65,445.592,288.702,483.539z"/>
<path style="opacity:0.1;enable-background:new    ;" d="M232.11,483.066c-22.292,3.931-45.14-3.26-61.117-19.237l-63-63
	c-27.018-27.018-27.018-70.98,0-97.997c10.114-10.115,22.868-16.767,36.882-19.238c22.293-3.931,45.141,3.261,61.118,19.237
	l62.999,62.999c27.017,27.018,27.017,70.98,0,97.998C258.878,473.942,246.124,480.594,232.11,483.066z"/>
<g>
	<path style="fill:#485358;" d="M149.882,397.478c-1.919,0-3.839-0.732-5.303-2.197c-2.929-2.929-2.929-7.678,0-10.607
		l45.258-45.258c2.929-2.929,7.678-2.929,10.606,0c2.929,2.929,2.929,7.678,0,10.606l-45.258,45.258
		C153.721,396.745,151.802,397.478,149.882,397.478z"/>
	<path style="fill:#485358;" d="M132.878,380.474c-1.919,0-3.839-0.732-5.303-2.197c-2.929-2.929-2.929-7.678,0-10.607
		l45.258-45.258c2.929-2.929,7.678-2.929,10.606,0c2.929,2.929,2.929,7.678,0,10.606l-45.258,45.258
		C136.717,379.741,134.798,380.474,132.878,380.474z"/>
	<path style="fill:#485358;" d="M122.677,356.661c-1.293,0-2.603-0.334-3.798-1.038c-3.57-2.102-4.76-6.699-2.659-10.268
		l23.448-39.829c2.101-3.57,6.7-4.759,10.268-2.659c3.57,2.102,4.76,6.699,2.659,10.268l-23.448,39.829
		C127.749,355.339,125.247,356.661,122.677,356.661z"/>
	<path style="fill:#485358;" d="M169.997,417.592c-1.919,0-3.839-0.732-5.303-2.197c-2.929-2.929-2.929-7.678,0-10.606
		l45.258-45.258c2.929-2.929,7.678-2.929,10.606,0c2.929,2.929,2.929,7.678,0,10.606L175.3,415.395
		C173.836,416.86,171.916,417.592,169.997,417.592z"/>
	<path style="fill:#485358;" d="M186.987,434.582c-1.919,0-3.839-0.732-5.303-2.197c-2.929-2.929-2.929-7.678,0-10.607
		l45.258-45.258c2.929-2.929,7.678-2.929,10.606,0c2.929,2.929,2.929,7.678,0,10.606l-45.258,45.258
		C190.826,433.85,188.907,434.582,186.987,434.582z"/>
	<path style="fill:#485358;" d="M192.626,394.963c-1.919,0-3.839-0.732-5.303-2.197l-20.115-20.115
		c-2.929-2.929-2.929-7.678,0-10.607s7.678-2.929,10.606,0l20.115,20.115c2.929,2.929,2.929,7.678,0,10.606
		C196.465,394.231,194.545,394.963,192.626,394.963z"/>
	<path style="fill:#485358;" d="M218.497,466.092c-1.919,0-3.839-0.732-5.303-2.197l-13.617-13.617
		c-2.929-2.929-2.929-7.678,0-10.606l45.258-45.258c2.929-2.929,7.678-2.929,10.606,0l13.617,13.617
		c2.929,2.929,2.929,7.678,0,10.607s-7.678,2.929-10.607,0l-8.313-8.314l-34.651,34.651l8.313,8.314
		c2.929,2.929,2.929,7.678,0,10.606C222.336,465.36,220.416,466.092,218.497,466.092z"/>
	<path style="fill:#485358;" d="M241.126,443.463c-1.919,0-3.839-0.732-5.303-2.197l-31.51-31.51c-2.929-2.929-2.929-7.678,0-10.606
		c2.929-2.929,7.678-2.929,10.606,0l31.51,31.51c2.929,2.929,2.929,7.678,0,10.606C244.965,442.731,243.045,443.463,241.126,443.463
		z"/>
	<path style="fill:#485358;" d="M155.507,357.844c-1.919,0-3.839-0.732-5.303-2.197l-21.1-21.099c-2.929-2.929-2.929-7.678,0-10.606
		c2.929-2.929,7.678-2.929,10.606,0l21.1,21.099c2.929,2.929,2.929,7.677,0,10.607C159.346,357.112,157.427,357.844,155.507,357.844
		z"/>
</g>
<path id="SVGCleanerId_1" style="fill:#E7EEEF;" d="M406.462,512h-60.281c-14.306,0-24.892-13.31-21.671-27.249l0,0
	c4.421-19.137,21.463-32.691,41.104-32.691h21.415c19.641,0,36.683,13.554,41.104,32.691l0,0
	C431.354,498.69,420.768,512,406.462,512z"/>
<g>
	<path id="SVGCleanerId_1_1_" style="fill:#E7EEEF;" d="M406.462,512h-60.281c-14.306,0-24.892-13.31-21.671-27.249l0,0
		c4.421-19.137,21.463-32.691,41.104-32.691h21.415c19.641,0,36.683,13.554,41.104,32.691l0,0
		C431.354,498.69,420.768,512,406.462,512z"/>
</g>
<path style="fill:#E7EEEF;" d="M47.671,247.546c-19.687,19.687-36.715,46.538-10.181,73.072c9.941,9.941,24.506,11.495,32.531,3.469
	c5.26-5.26,6.389-13.327,3.749-21.061c-0.491-1.439,0.847-2.776,2.285-2.285c7.735,2.64,15.801,1.511,21.062-3.749
	c5.26-5.26,6.389-13.327,3.749-21.061c-0.491-1.439,0.847-2.776,2.285-2.285c7.735,2.64,15.801,1.511,21.062-3.749
	c8.025-8.025,6.472-22.59-3.469-32.531C94.209,210.83,67.359,227.858,47.671,247.546z"/>
<g>
</g>
<g>
</g>
<g>
</g>
<g>
</g>
<g>
</g>
<g>
</g>
<g>
</g>
<g>
</g>
<g>
</g>
<g>
</g>
<g>
</g>
<g>
</g>
<g>
</g>
<g>
</g>
<g>
</g>
</svg>
