<?xml version="1.0" encoding="iso-8859-1"?>
<!-- Generator: Adobe Illustrator 16.0.0, SVG Export Plug-In . SVG Version: 6.00 Build 0)  -->
<!DOCTYPE svg PUBLIC "-//W3C//DTD SVG 1.1//EN" "http://www.w3.org/Graphics/SVG/1.1/DTD/svg11.dtd">
<svg version="1.1" id="Capa_1" xmlns="http://www.w3.org/2000/svg" xmlns:xlink="http://www.w3.org/1999/xlink" x="0px" y="0px"
	 width="31.273px" height="31.273px" viewBox="0 0 31.273 31.273" style="enable-background:new 0 0 31.273 31.273;"
	 xml:space="preserve">
<g>
	<path d="M25.721,6.393c-3.062,0-5.553,2.49-5.553,5.552c0,0.512,0.092,0.999,0.223,1.47l-2.225,3.511
		c-0.295-0.068-0.599-0.113-0.913-0.113c-0.983,0-1.874,0.367-2.575,0.954l-6.634-2.911c0.005-0.079,0.023-0.152,0.023-0.231
		c0-2.224-1.811-4.033-4.034-4.033S0,12.4,0,14.625c0,2.225,1.81,4.034,4.033,4.034c0.828,0,1.598-0.25,2.238-0.681l6.966,3.058
		c0.102,2.135,1.855,3.846,4.016,3.846c2.224,0,4.033-1.81,4.033-4.034c0-0.167-0.028-0.327-0.05-0.489l3.736-2.936
		c0.246,0.035,0.492,0.076,0.748,0.076c3.062,0,5.553-2.491,5.553-5.553C31.273,8.882,28.782,6.393,25.721,6.393z M2.142,14.625
		c0-1.042,0.849-1.891,1.891-1.891c1.043,0,1.892,0.848,1.892,1.891c0,1.043-0.849,1.891-1.892,1.891
		C2.991,16.516,2.142,15.668,2.142,14.625z M17.253,22.803c-1.08,0-1.958-0.877-1.958-1.957c0-1.079,0.878-1.959,1.958-1.959
		c1.079,0,1.957,0.879,1.957,1.959S18.332,22.803,17.253,22.803z M25.721,15.117c-1.75,0-3.172-1.423-3.172-3.172
		s1.422-3.172,3.172-3.172s3.172,1.423,3.172,3.172S27.471,15.117,25.721,15.117z"/>
</g>
<g>
</g>
<g>
</g>
<g>
</g>
<g>
</g>
<g>
</g>
<g>
</g>
<g>
</g>
<g>
</g>
<g>
</g>
<g>
</g>
<g>
</g>
<g>
</g>
<g>
</g>
<g>
</g>
<g>
</g>
</svg>
